<svg id="Capa_1" data-name="Capa 1" xmlns="http://www.w3.org/2000/svg" viewBox="0 0 219.39 114.71"><rect x="-58.02" y="-147.81" width="595.28" height="841.89" fill="none"/><rect x="-58.02" y="-147.81" width="595.28" height="841.89" fill="none"/><rect x="-58.02" y="-147.81" width="595.28" height="841.89" fill="none"/><rect x="-58.02" y="-147.81" width="595.28" height="841.89" fill="none"/><rect x="-58.02" y="-147.81" width="595.28" height="841.89" fill="none"/><rect x="-58.02" y="-147.81" width="595.28" height="841.89" fill="none"/><rect x="-58.02" y="-147.81" width="595.28" height="841.89" fill="none"/><path d="M58.6,22.85c10.59,0,15.89,7.94,15.89,17.21.13,4.23,0,6.63,0,11.92h-4S67,59.53,73.16,63.89c0,.27-22.64,7.47-27.8-14.56,0,.26,11.7,7.41,18.53,5.3,0,0,2.67-9.89.69-15.87C62,31,50.71,33.19,45.36,36.3,32.08,44,27.87,56,22.85,65.22c0,0,3.29-42.37,35.75-42.37M182.09,90.14a1.52,1.52,0,0,0,1.14-.46,1.91,1.91,0,0,0,.44-1.35v-.19l-1.33.23c-.89.17-1.34.49-1.34.95a.68.68,0,0,0,.32.59,1.26,1.26,0,0,0,.77.23m-.8,1.88a3.54,3.54,0,0,1-1.54-.33,2.52,2.52,0,0,1-1.08-.9,2.18,2.18,0,0,1-.39-1.26,2.11,2.11,0,0,1,.9-1.76,5.72,5.72,0,0,1,2.48-.94l2-.3v-.19a1.28,1.28,0,0,0-.24-.86,1,1,0,0,0-.82-.27,1.07,1.07,0,0,0-.53.11,3.24,3.24,0,0,0-.49.33,2,2,0,0,1-.36.26A.21.21,0,0,1,181,86h-1.85a.36.36,0,0,1-.27-.1.29.29,0,0,1-.09-.25,1.81,1.81,0,0,1,.43-1,3.28,3.28,0,0,1,1.27-.91,5,5,0,0,1,2.09-.39,4.26,4.26,0,0,1,2.93.87,3,3,0,0,1,1,2.36v4.83a.41.41,0,0,1-.11.28.38.38,0,0,1-.29.12h-2a.41.41,0,0,1-.4-.4V90.9a2.68,2.68,0,0,1-1,.81,3.28,3.28,0,0,1-1.49.31m-6.56-.16a.41.41,0,0,1-.4-.4V84a.36.36,0,0,1,.12-.28.38.38,0,0,1,.28-.12h2a.41.41,0,0,1,.3.12.39.39,0,0,1,.11.28v7.5a.4.4,0,0,1-.11.29.44.44,0,0,1-.3.11Zm0-9.45a.37.37,0,0,1-.29-.12.36.36,0,0,1-.11-.29V80.52a.41.41,0,0,1,.12-.3.38.38,0,0,1,.28-.12h2a.41.41,0,0,1,.3.12.44.44,0,0,1,.11.3V82a.4.4,0,0,1-.11.29.41.41,0,0,1-.3.12Zm-7.19,9.45a.41.41,0,0,1-.4-.4V84a.4.4,0,0,1,.11-.3.37.37,0,0,1,.29-.12h1.94a.41.41,0,0,1,.42.42v.6a3.08,3.08,0,0,1,1-.75,3.24,3.24,0,0,1,1.34-.27H173a.37.37,0,0,1,.29.12.36.36,0,0,1,.11.28V85.7a.39.39,0,0,1-.4.4h-1.61a1.33,1.33,0,0,0-1,.35,1.37,1.37,0,0,0-.34,1v4a.37.37,0,0,1-.12.29.44.44,0,0,1-.3.11Zm-6.39-1.72a1.55,1.55,0,0,0,1.14-.46,1.91,1.91,0,0,0,.44-1.35v-.19l-1.33.23c-.89.17-1.34.49-1.34.95a.67.67,0,0,0,.31.59,1.31,1.31,0,0,0,.78.23m-.8,1.88a3.51,3.51,0,0,1-1.54-.33,2.55,2.55,0,0,1-1.09-.9,2.18,2.18,0,0,1-.39-1.26,2.11,2.11,0,0,1,.9-1.76,5.72,5.72,0,0,1,2.49-.94l2-.3v-.19a1.28,1.28,0,0,0-.24-.86,1,1,0,0,0-.81-.27,1.07,1.07,0,0,0-.53.11,2.81,2.81,0,0,0-.49.33,1.69,1.69,0,0,1-.37.26.18.18,0,0,1-.16.11h-1.85a.35.35,0,0,1-.26-.1.29.29,0,0,1-.09-.25,1.73,1.73,0,0,1,.43-1,3.31,3.31,0,0,1,1.26-.91,5,5,0,0,1,2.09-.39,4.27,4.27,0,0,1,2.94.87,3,3,0,0,1,1,2.36v4.83a.38.38,0,0,1-.12.28.36.36,0,0,1-.28.12h-2a.37.37,0,0,1-.27-.12.38.38,0,0,1-.12-.28V90.9a2.64,2.64,0,0,1-1,.81,3.23,3.23,0,0,1-1.48.31m-12.25-.16a.41.41,0,0,1-.4-.4V84a.36.36,0,0,1,.12-.28.38.38,0,0,1,.28-.12h2a.37.37,0,0,1,.29.12.36.36,0,0,1,.11.28v.61a3.29,3.29,0,0,1,1.11-.85,3.65,3.65,0,0,1,1.56-.32,3.16,3.16,0,0,1,1.62.42,2.89,2.89,0,0,1,1.11,1.23,4.21,4.21,0,0,1,.41,2v4.45a.41.41,0,0,1-.11.28.38.38,0,0,1-.29.12h-2.12a.44.44,0,0,1-.3-.11.37.37,0,0,1-.12-.29V87.11A1.58,1.58,0,0,0,153,86a1.26,1.26,0,0,0-1-.39,1.3,1.3,0,0,0-1,.39,1.53,1.53,0,0,0-.37,1.1v4.35a.39.39,0,0,1-.4.4Zm-6.39-1.72a1.52,1.52,0,0,0,1.14-.46,1.91,1.91,0,0,0,.44-1.35v-.19l-1.32.23c-.9.17-1.34.49-1.34.95a.67.67,0,0,0,.31.59,1.26,1.26,0,0,0,.77.23m-.8,1.88a3.58,3.58,0,0,1-1.54-.33,2.52,2.52,0,0,1-1.08-.9,2.18,2.18,0,0,1-.39-1.26,2.11,2.11,0,0,1,.9-1.76,5.72,5.72,0,0,1,2.48-.94l2-.3v-.19a1.28,1.28,0,0,0-.24-.86,1,1,0,0,0-.82-.27,1.07,1.07,0,0,0-.53.11,3.24,3.24,0,0,0-.49.33,1.66,1.66,0,0,1-.36.26.21.21,0,0,1-.16.11h-1.85a.36.36,0,0,1-.27-.1.26.26,0,0,1-.08-.25,1.73,1.73,0,0,1,.43-1,3.16,3.16,0,0,1,1.26-.91,5,5,0,0,1,2.09-.39,4.24,4.24,0,0,1,2.93.87,3,3,0,0,1,1,2.36v4.83a.41.41,0,0,1-.11.28.38.38,0,0,1-.29.12h-2a.41.41,0,0,1-.4-.4V90.9a2.6,2.6,0,0,1-1,.81,3.28,3.28,0,0,1-1.49.31m-8.8,0a5.39,5.39,0,0,1-3.58-1.1,4.18,4.18,0,0,1-1.38-3.22c0-.29,0-.76,0-1.41s0-1.14,0-1.43a4.18,4.18,0,0,1,1.4-3.2,5.28,5.28,0,0,1,3.56-1.13,6.82,6.82,0,0,1,2.55.46,4.13,4.13,0,0,1,1.78,1.35,3.54,3.54,0,0,1,.68,2.07.31.31,0,0,1-.1.24.37.37,0,0,1-.25.09h-2.26a.5.5,0,0,1-.33-.08.72.72,0,0,1-.18-.33,1.89,1.89,0,0,0-.68-1.09,2.11,2.11,0,0,0-1.21-.31q-1.8,0-1.86,2c0,.28,0,.72,0,1.32s0,1,0,1.36q.06,2,1.86,2a2.16,2.16,0,0,0,1.21-.32,1.86,1.86,0,0,0,.68-1.09.56.56,0,0,1,.17-.32.53.53,0,0,1,.34-.09h2.26a.37.37,0,0,1,.25.09.33.33,0,0,1,.1.24,3.59,3.59,0,0,1-.68,2.08,4.19,4.19,0,0,1-1.78,1.34,6.62,6.62,0,0,1-2.55.46m-17.89-.16a.41.41,0,0,1-.4-.4V84a.36.36,0,0,1,.12-.28.38.38,0,0,1,.28-.12h2a.38.38,0,0,1,.29.12.39.39,0,0,1,.11.28v.61a3.19,3.19,0,0,1,1.11-.85,3.64,3.64,0,0,1,1.55-.32,3.1,3.1,0,0,1,1.62.42A2.85,2.85,0,0,1,122,85.05a4.33,4.33,0,0,1,.41,2v4.45a.38.38,0,0,1-.12.28.36.36,0,0,1-.28.12h-2.12a.44.44,0,0,1-.3-.11.37.37,0,0,1-.12-.29V87.11a1.58,1.58,0,0,0-.34-1.1,1.26,1.26,0,0,0-1-.39,1.33,1.33,0,0,0-1,.39,1.57,1.57,0,0,0-.36,1.1v4.35a.41.41,0,0,1-.11.28.38.38,0,0,1-.29.12Zm-6.39-1.72a1.55,1.55,0,0,0,1.14-.46,1.91,1.91,0,0,0,.44-1.35v-.19l-1.33.23c-.89.17-1.34.49-1.34.95a.67.67,0,0,0,.31.59,1.31,1.31,0,0,0,.78.23M107,92a3.51,3.51,0,0,1-1.54-.33,2.55,2.55,0,0,1-1.09-.9,2.18,2.18,0,0,1-.39-1.26,2.11,2.11,0,0,1,.9-1.76,5.72,5.72,0,0,1,2.48-.94l2-.3v-.19a1.28,1.28,0,0,0-.24-.86,1,1,0,0,0-.81-.27,1.07,1.07,0,0,0-.53.11,2.81,2.81,0,0,0-.49.33,1.69,1.69,0,0,1-.37.26.18.18,0,0,1-.16.11h-1.85a.35.35,0,0,1-.26-.1.29.29,0,0,1-.09-.25,1.73,1.73,0,0,1,.43-1,3.31,3.31,0,0,1,1.26-.91,5,5,0,0,1,2.09-.39,4.27,4.27,0,0,1,2.94.87,3,3,0,0,1,1,2.36v4.83a.38.38,0,0,1-.12.28.36.36,0,0,1-.28.12h-2a.39.39,0,0,1-.28-.12.41.41,0,0,1-.11-.28V90.9a2.64,2.64,0,0,1-1,.81A3.23,3.23,0,0,1,107,92m-9.3-.16a.39.39,0,0,1-.28-.12.38.38,0,0,1-.12-.28V84a.41.41,0,0,1,.12-.3.36.36,0,0,1,.28-.12h2a.37.37,0,0,1,.29.12.41.41,0,0,1,.12.3v.6a3.11,3.11,0,0,1,1-.75,3.19,3.19,0,0,1,1.33-.27h.72a.38.38,0,0,1,.29.12.39.39,0,0,1,.11.28V85.7a.41.41,0,0,1-.11.28.38.38,0,0,1-.29.12h-1.61a1.32,1.32,0,0,0-1,.35,1.37,1.37,0,0,0-.35,1v4a.37.37,0,0,1-.12.29.42.42,0,0,1-.29.11ZM90.82,92a5.4,5.4,0,0,1-3.63-1.12,4.24,4.24,0,0,1-1.38-3.22c0-.3,0-.78,0-1.45s0-1.16,0-1.47a4,4,0,0,1,1.39-3.12,5.48,5.48,0,0,1,3.62-1.11,6.66,6.66,0,0,1,2.67.5,4.36,4.36,0,0,1,1.74,1.26,2.76,2.76,0,0,1,.63,1.59.34.34,0,0,1-.11.25.31.31,0,0,1-.24.1H93a.43.43,0,0,1-.24,0,.69.69,0,0,1-.17-.17,1.89,1.89,0,0,0-.62-.77,1.93,1.93,0,0,0-1.18-.31,1.72,1.72,0,0,0-1.92,1.91c0,.3,0,.76,0,1.37s0,1.08,0,1.39c0,1.35.69,2,1.95,2a2.22,2.22,0,0,0,1.47-.47,1.72,1.72,0,0,0,.54-1.4v-.29H91.44a.41.41,0,0,1-.3-.12.38.38,0,0,1-.12-.29V85.81a.4.4,0,0,1,.12-.29.41.41,0,0,1,.3-.12h4a.41.41,0,0,1,.3.12.4.4,0,0,1,.12.29v1.85A4.22,4.22,0,0,1,95.28,90a4,4,0,0,1-1.78,1.5,6.41,6.41,0,0,1-2.68.52M192.11,71.1v0a1.83,1.83,0,0,0-.34-1.19,1.25,1.25,0,0,0-1.87,0,1.89,1.89,0,0,0-.33,1.19v0Zm-1.26,5.17a4.31,4.31,0,0,1-3.06-1,4,4,0,0,1-1.15-3v-.5a4.11,4.11,0,0,1,1.18-3,4.17,4.17,0,0,1,3-1.06,4.57,4.57,0,0,1,2.33.55,3.51,3.51,0,0,1,1.42,1.51,5,5,0,0,1,.47,2.2v.39a.41.41,0,0,1-.42.42h-5.06v.1a2,2,0,0,0,.34,1.15,1.05,1.05,0,0,0,.91.44,1.1,1.1,0,0,0,.61-.15,2,2,0,0,0,.44-.39.88.88,0,0,1,.23-.2.66.66,0,0,1,.28,0h2.09a.37.37,0,0,1,.25.09.26.26,0,0,1,.1.21,1.61,1.61,0,0,1-.47,1,3.65,3.65,0,0,1-1.37,1,5.16,5.16,0,0,1-2.13.4M181,74.05a1.23,1.23,0,0,0,1-.43,2,2,0,0,0,.36-1.11c0-.3,0-.5,0-.61s0-.31,0-.59a1.65,1.65,0,0,0-.37-1,1.27,1.27,0,0,0-1-.41,1.16,1.16,0,0,0-1,.43,2.14,2.14,0,0,0-.36,1.17l0,.49,0,.5a2.14,2.14,0,0,0,.36,1.17,1.18,1.18,0,0,0,1,.42m-.92,2.22a3.11,3.11,0,0,1-2.43-1,4.17,4.17,0,0,1-.95-2.78l0-.56,0-.57a4.23,4.23,0,0,1,.95-2.74,3.12,3.12,0,0,1,2.43-1,3,3,0,0,1,2.31.92v-3.4a.36.36,0,0,1,.12-.28.38.38,0,0,1,.28-.12h2.06a.37.37,0,0,1,.29.12.36.36,0,0,1,.12.28V75.71a.37.37,0,0,1-.12.29.36.36,0,0,1-.29.11H183a.41.41,0,0,1-.4-.4v-.49a3,3,0,0,1-2.47,1m-12.06,0a5.74,5.74,0,0,1-2.18-.36,3.32,3.32,0,0,1-1.3-.88,1.49,1.49,0,0,1-.43-.93.34.34,0,0,1,.12-.26.39.39,0,0,1,.27-.1h1.93a.25.25,0,0,1,.16.06,2.14,2.14,0,0,1,.3.21,2.94,2.94,0,0,0,.57.34,1.48,1.48,0,0,0,.63.12,1.41,1.41,0,0,0,.71-.17.53.53,0,0,0,.28-.47.53.53,0,0,0-.16-.41,1.58,1.58,0,0,0-.57-.32,9.63,9.63,0,0,0-1.28-.31q-2.76-.56-2.76-2.55a2.13,2.13,0,0,1,.42-1.25A3,3,0,0,1,166,68a4.92,4.92,0,0,1,2-.36,5.37,5.37,0,0,1,2,.35,3.52,3.52,0,0,1,1.3.87,1.44,1.44,0,0,1,.45.91.42.42,0,0,1-.1.26.36.36,0,0,1-.25.11h-1.76a.36.36,0,0,1-.22-.06,3,3,0,0,1-.38-.24,4.39,4.39,0,0,0-.51-.3,1.23,1.23,0,0,0-.55-.1,1,1,0,0,0-.62.17.55.55,0,0,0-.22.45.56.56,0,0,0,.13.39,1.46,1.46,0,0,0,.56.3,11.73,11.73,0,0,0,1.29.3,4.17,4.17,0,0,1,2.27,1,2.2,2.2,0,0,1,.71,1.62,2.18,2.18,0,0,1-1.06,1.9,5.28,5.28,0,0,1-3,.71m-9.47-1.88a1.48,1.48,0,0,0,1.14-.46,1.85,1.85,0,0,0,.44-1.34v-.2l-1.32.23c-.9.17-1.34.49-1.34,1a.69.69,0,0,0,.31.59,1.35,1.35,0,0,0,.77.22m-.8,1.88a3.72,3.72,0,0,1-1.54-.32,2.62,2.62,0,0,1-1.08-.91,2.18,2.18,0,0,1-.39-1.26,2.11,2.11,0,0,1,.9-1.76,5.6,5.6,0,0,1,2.48-.93l2-.31v-.19a1.28,1.28,0,0,0-.24-.86,1,1,0,0,0-.81-.27,1.24,1.24,0,0,0-.54.11,2.72,2.72,0,0,0-.48.34,2,2,0,0,1-.37.25.18.18,0,0,1-.16.11h-1.85a.33.33,0,0,1-.26-.1.29.29,0,0,1-.09-.25,1.68,1.68,0,0,1,.43-1A3.15,3.15,0,0,1,157,68a5,5,0,0,1,2.09-.38,4.32,4.32,0,0,1,2.94.86,3.06,3.06,0,0,1,.95,2.36v4.83a.39.39,0,0,1-.4.4h-2a.41.41,0,0,1-.4-.4v-.55a2.68,2.68,0,0,1-1,.8,3.28,3.28,0,0,1-1.49.31m-16.58-.16a.41.41,0,0,1-.4-.4v-7.5a.36.36,0,0,1,.12-.28.37.37,0,0,1,.28-.11h1.85a.38.38,0,0,1,.29.11.39.39,0,0,1,.11.28v.55a3.17,3.17,0,0,1,1-.79,2.91,2.91,0,0,1,1.37-.31A2.42,2.42,0,0,1,148.23,69a2.77,2.77,0,0,1,1.07-1,2.88,2.88,0,0,1,1.47-.38,2.78,2.78,0,0,1,2.13.88,3.79,3.79,0,0,1,.82,2.64v4.53a.41.41,0,0,1-.11.28.38.38,0,0,1-.29.12h-2a.4.4,0,0,1-.3-.11.37.37,0,0,1-.12-.29V71.29a1.54,1.54,0,0,0-.31-1.07,1.09,1.09,0,0,0-.84-.35,1,1,0,0,0-.8.35,1.54,1.54,0,0,0-.31,1.07v4.42a.38.38,0,0,1-.12.28.36.36,0,0,1-.28.12h-2A.39.39,0,0,1,146,76a.37.37,0,0,1-.12-.29V71.29a1.54,1.54,0,0,0-.32-1.07,1.08,1.08,0,0,0-.83-.35,1.05,1.05,0,0,0-.81.35,1.48,1.48,0,0,0-.32,1.06v4.43a.41.41,0,0,1-.11.28.38.38,0,0,1-.29.12Zm-4.45,0a.39.39,0,0,1-.29-.11.37.37,0,0,1-.12-.29V65.18a.36.36,0,0,1,.12-.28.4.4,0,0,1,.29-.12h2a.38.38,0,0,1,.29.12.39.39,0,0,1,.11.28V75.71a.41.41,0,0,1-.11.28.38.38,0,0,1-.29.12Zm-6.4-1.72a1.51,1.51,0,0,0,1.14-.46,1.9,1.9,0,0,0,.44-1.34v-.2l-1.33.23c-.89.17-1.34.49-1.34,1a.72.72,0,0,0,.31.59,1.38,1.38,0,0,0,.78.22m-.8,1.88A3.69,3.69,0,0,1,128,76a2.65,2.65,0,0,1-1.09-.91,2.18,2.18,0,0,1-.39-1.26,2.11,2.11,0,0,1,.9-1.76,5.64,5.64,0,0,1,2.49-.93l2-.31v-.19a1.34,1.34,0,0,0-.23-.86,1.06,1.06,0,0,0-.82-.27,1.19,1.19,0,0,0-.53.11,2.43,2.43,0,0,0-.49.34,2,2,0,0,1-.37.25.17.17,0,0,1-.16.11h-1.85a.35.35,0,0,1-.26-.1.29.29,0,0,1-.09-.25,1.75,1.75,0,0,1,.43-1,3.22,3.22,0,0,1,1.26-.92,5,5,0,0,1,2.09-.38,4.32,4.32,0,0,1,2.94.86,3,3,0,0,1,1,2.36v4.83a.41.41,0,0,1-.11.28.4.4,0,0,1-.29.12h-2a.41.41,0,0,1-.4-.4v-.55a2.71,2.71,0,0,1-1,.8,3.23,3.23,0,0,1-1.48.31M121.4,70a1.48,1.48,0,0,0,1-.35,1.29,1.29,0,0,0,.37-1,1.45,1.45,0,0,0-.34-1,1.37,1.37,0,0,0-1.06-.38h-1.79V70ZM117,76.11a.41.41,0,0,1-.4-.4V65.36a.44.44,0,0,1,.11-.3.38.38,0,0,1,.29-.12h4.52a5.13,5.13,0,0,1,3.25.94,3.32,3.32,0,0,1,1.18,2.76,3.22,3.22,0,0,1-1.18,2.73,5.25,5.25,0,0,1-3.25.9h-1.82v3.44a.41.41,0,0,1-.11.28.38.38,0,0,1-.29.12Zm-9.17.16a5.74,5.74,0,0,1-2.18-.36,3.32,3.32,0,0,1-1.3-.88,1.55,1.55,0,0,1-.43-.93.34.34,0,0,1,.12-.26.39.39,0,0,1,.27-.1h1.93a.23.23,0,0,1,.16.06,2.14,2.14,0,0,1,.3.21,2.94,2.94,0,0,0,.57.34,1.48,1.48,0,0,0,.63.12,1.38,1.38,0,0,0,.71-.17.53.53,0,0,0,.28-.47.56.56,0,0,0-.15-.41,1.75,1.75,0,0,0-.58-.32,9.63,9.63,0,0,0-1.28-.31q-2.76-.56-2.76-2.55A2.13,2.13,0,0,1,104.5,69a3,3,0,0,1,1.24-1,4.92,4.92,0,0,1,2-.36,5.37,5.37,0,0,1,2,.35,3.44,3.44,0,0,1,1.3.87,1.44,1.44,0,0,1,.45.91.37.37,0,0,1-.1.26.36.36,0,0,1-.25.11h-1.76a.36.36,0,0,1-.22-.06,3,3,0,0,1-.38-.24,3.69,3.69,0,0,0-.51-.3,1.23,1.23,0,0,0-.55-.1,1,1,0,0,0-.62.17.55.55,0,0,0-.22.45.56.56,0,0,0,.13.39,1.46,1.46,0,0,0,.56.3,11.73,11.73,0,0,0,1.29.3,4.17,4.17,0,0,1,2.27,1,2.2,2.2,0,0,1,.71,1.62,2.18,2.18,0,0,1-1.06,1.9,5.28,5.28,0,0,1-3,.71m-9.47-1.88a1.48,1.48,0,0,0,1.14-.46,1.85,1.85,0,0,0,.44-1.34v-.2l-1.32.23c-.89.17-1.34.49-1.34,1a.69.69,0,0,0,.31.59,1.35,1.35,0,0,0,.77.22m-.79,1.88A3.66,3.66,0,0,1,96,76,2.58,2.58,0,0,1,94.9,75a2.18,2.18,0,0,1-.39-1.26,2.11,2.11,0,0,1,.9-1.76,5.6,5.6,0,0,1,2.48-.93l2-.31v-.19a1.28,1.28,0,0,0-.24-.86,1,1,0,0,0-.81-.27,1.27,1.27,0,0,0-.54.11,2.72,2.72,0,0,0-.48.34,2,2,0,0,1-.37.25.18.18,0,0,1-.16.11H95.42a.34.34,0,0,1-.26-.1.29.29,0,0,1-.09-.25,1.68,1.68,0,0,1,.43-1A3.22,3.22,0,0,1,96.76,68a5,5,0,0,1,2.09-.38,4.32,4.32,0,0,1,2.94.86,3.06,3.06,0,0,1,.95,2.36v4.83a.39.39,0,0,1-.4.4h-2a.39.39,0,0,1-.28-.12.38.38,0,0,1-.12-.28v-.55a2.68,2.68,0,0,1-1,.8,3.26,3.26,0,0,1-1.48.31m-11.34-.16a.41.41,0,0,1-.4-.4V65.34a.38.38,0,0,1,.12-.29.41.41,0,0,1,.28-.11h2.23a.38.38,0,0,1,.4.4v8.27h4.79A.41.41,0,0,1,94,74v1.69a.37.37,0,0,1-.12.29.39.39,0,0,1-.29.11ZM194.48,55.48v0a2.31,2.31,0,0,0-.47-1.51,1.6,1.6,0,0,0-1.29-.57,1.53,1.53,0,0,0-1.27.57,2.31,2.31,0,0,0-.47,1.51v0Zm-1.74,5a3.87,3.87,0,0,1-2.83-1,4.05,4.05,0,0,1-1.11-2.9l0-.4a4.46,4.46,0,0,1,1.05-3.14,4.26,4.26,0,0,1,5.82,0,4.38,4.38,0,0,1,1,3.06v.33a.41.41,0,0,1-.11.28.42.42,0,0,1-.29.11H191V57a2.49,2.49,0,0,0,.49,1.47,1.49,1.49,0,0,0,1.25.58,1.81,1.81,0,0,0,1.49-.73.88.88,0,0,1,.22-.22.76.76,0,0,1,.27,0h1.4a.41.41,0,0,1,.25.08.28.28,0,0,1,.11.23,1.54,1.54,0,0,1-.46.9,3.77,3.77,0,0,1-1.3.9,4.63,4.63,0,0,1-2,.38m-9.52-1.72a1.59,1.59,0,0,0,1.35-.58,2.59,2.59,0,0,0,.48-1.45c0-.12,0-.33,0-.6s0-.5,0-.63a2.16,2.16,0,0,0-.49-1.35,1.66,1.66,0,0,0-1.34-.56c-1.14,0-1.75.7-1.82,2.11l0,.48,0,.47c.07,1.41.68,2.11,1.82,2.11m-.61,1.72a3,3,0,0,1-2.47-1,4.41,4.41,0,0,1-.94-2.75l0-.52,0-.53a4.4,4.4,0,0,1,.93-2.74,3.42,3.42,0,0,1,4.92,0V49.42a.38.38,0,0,1,.11-.28.41.41,0,0,1,.28-.11h1.38a.38.38,0,0,1,.39.39V60a.37.37,0,0,1-.11.27.34.34,0,0,1-.28.11h-1.29a.35.35,0,0,1-.27-.11.37.37,0,0,1-.11-.27v-.59a3,3,0,0,1-2.54,1.13M170,58.8a1.57,1.57,0,0,0,1.35-.58,2.59,2.59,0,0,0,.49-1.45c0-.12,0-.33,0-.6s0-.5,0-.63a2.17,2.17,0,0,0-.5-1.35,1.63,1.63,0,0,0-1.34-.56c-1.13,0-1.74.7-1.82,2.11v.95c.08,1.41.69,2.11,1.82,2.11m-.6,1.72a3,3,0,0,1-2.48-1,4.53,4.53,0,0,1-.94-2.75V55.69a4.47,4.47,0,0,1,.94-2.74,3.42,3.42,0,0,1,4.92,0V49.42a.38.38,0,0,1,.11-.28.39.39,0,0,1,.27-.11h1.39a.38.38,0,0,1,.28.11.37.37,0,0,1,.1.28V60a.36.36,0,0,1-.1.27.34.34,0,0,1-.28.11h-1.29a.33.33,0,0,1-.27-.11.34.34,0,0,1-.12-.27v-.59a3,3,0,0,1-2.53,1.13M160.28,59a1.92,1.92,0,0,0,1.44-.57,2.31,2.31,0,0,0,.56-1.66v-.32l-1.6.25c-1.22.2-1.83.6-1.83,1.23a.89.89,0,0,0,.42.79,1.76,1.76,0,0,0,1,.28m-.54,1.53a3.49,3.49,0,0,1-1.49-.32,2.77,2.77,0,0,1-1.07-.89,2.16,2.16,0,0,1,.49-3,5.22,5.22,0,0,1,2.41-.91l2.18-.32v-.34a1.37,1.37,0,0,0-.35-1,1.49,1.49,0,0,0-1.12-.36,1.58,1.58,0,0,0-.84.2,2.2,2.2,0,0,0-.52.39l-.26.26a.25.25,0,0,1-.24.19h-1.25a.34.34,0,0,1-.24-.09.35.35,0,0,1-.11-.26,1.65,1.65,0,0,1,.39-.9,3,3,0,0,1,1.16-.88,4.43,4.43,0,0,1,1.93-.37,3.84,3.84,0,0,1,2.75.84,3,3,0,0,1,.86,2.22v5a.37.37,0,0,1-.11.27.34.34,0,0,1-.28.11h-1.32a.38.38,0,0,1-.38-.38v-.62a2.74,2.74,0,0,1-1,.84,3.62,3.62,0,0,1-1.6.32M151.4,58.8a1.57,1.57,0,0,0,1.35-.58,2.67,2.67,0,0,0,.49-1.45c0-.12,0-.33,0-.6s0-.5,0-.63a2.17,2.17,0,0,0-.5-1.35,1.64,1.64,0,0,0-1.34-.56c-1.14,0-1.74.7-1.82,2.11v.95c.08,1.41.68,2.11,1.82,2.11m-.6,1.72a3,3,0,0,1-2.48-1,4.47,4.47,0,0,1-.94-2.75l0-.52,0-.53a4.4,4.4,0,0,1,.93-2.74,3.43,3.43,0,0,1,4.93,0V49.42a.34.34,0,0,1,.11-.28.37.37,0,0,1,.27-.11H155a.38.38,0,0,1,.28.11.37.37,0,0,1,.1.28V60a.36.36,0,0,1-.1.27.34.34,0,0,1-.28.11h-1.29a.38.38,0,0,1-.39-.38v-.59a3,3,0,0,1-2.53,1.13m-6.75-.16a.36.36,0,0,1-.27-.11.37.37,0,0,1-.11-.27V52.45a.38.38,0,0,1,.11-.28.39.39,0,0,1,.27-.1h1.36a.35.35,0,0,1,.27.11.37.37,0,0,1,.11.27V60a.37.37,0,0,1-.11.27.35.35,0,0,1-.27.11ZM144,50.71a.37.37,0,0,1-.27-.11.36.36,0,0,1-.11-.27V49.16a.39.39,0,0,1,.11-.29.37.37,0,0,1,.27-.11h1.47a.39.39,0,0,1,.28.11.4.4,0,0,1,.12.29v1.17a.37.37,0,0,1-.12.27.43.43,0,0,1-.28.11Zm-5.48,9.81a5,5,0,0,1-2-.36,3.25,3.25,0,0,1-1.21-.86,1.43,1.43,0,0,1-.39-.83.33.33,0,0,1,.11-.26.37.37,0,0,1,.24-.1h1.31a.31.31,0,0,1,.23.13l.36.3a2,2,0,0,0,.63.38,2.26,2.26,0,0,0,.79.14,2,2,0,0,0,1-.25.79.79,0,0,0,.4-.71.75.75,0,0,0-.18-.52,1.71,1.71,0,0,0-.66-.37,13.22,13.22,0,0,0-1.41-.37,4.28,4.28,0,0,1-2-.88,2,2,0,0,1-.65-1.56,2.16,2.16,0,0,1,.38-1.21,2.8,2.8,0,0,1,1.14-.92,4.22,4.22,0,0,1,1.82-.36,4.58,4.58,0,0,1,1.86.34,3.24,3.24,0,0,1,1.19.82,1.41,1.41,0,0,1,.41.85.38.38,0,0,1-.35.35h-1.2a.3.3,0,0,1-.27-.13c-.08,0-.19-.15-.36-.29a1.8,1.8,0,0,0-1.28-.48,1.41,1.41,0,0,0-.91.26.79.79,0,0,0-.32.67.76.76,0,0,0,.15.48,1.33,1.33,0,0,0,.61.36,10.42,10.42,0,0,0,1.39.34c1.92.37,2.87,1.21,2.87,2.51a2.14,2.14,0,0,1-1,1.83,4.59,4.59,0,0,1-2.73.7m-9.29-.16a.36.36,0,0,1-.27-.11.37.37,0,0,1-.11-.27V52.47a.4.4,0,0,1,.11-.29.36.36,0,0,1,.27-.11h1.31a.36.36,0,0,1,.29.11.4.4,0,0,1,.11.29v.65a2.71,2.71,0,0,1,2.3-1h.67a.35.35,0,0,1,.38.38v1.16a.4.4,0,0,1-.1.28.38.38,0,0,1-.28.11h-1.26A1.49,1.49,0,0,0,131,55.61V60a.38.38,0,0,1-.39.38Zm-4.09-4.88v0a2.31,2.31,0,0,0-.47-1.51,1.57,1.57,0,0,0-1.29-.57,1.55,1.55,0,0,0-1.27.57,2.31,2.31,0,0,0-.46,1.51v0Zm-1.74,5a3.88,3.88,0,0,1-2.83-1,4.05,4.05,0,0,1-1.11-2.9l0-.4a4.46,4.46,0,0,1,1-3.14,4.26,4.26,0,0,1,5.82,0,4.38,4.38,0,0,1,1,3.06v.33a.41.41,0,0,1-.11.28.4.4,0,0,1-.29.11h-5.29V57a2.48,2.48,0,0,0,.48,1.47,1.5,1.5,0,0,0,1.25.58,1.8,1.8,0,0,0,1.49-.73.88.88,0,0,1,.22-.22.85.85,0,0,1,.27,0h1.41a.44.44,0,0,1,.25.08.31.31,0,0,1,.1.23,1.48,1.48,0,0,1-.46.9,3.68,3.68,0,0,1-1.3.9,4.6,4.6,0,0,1-2,.38m-9.65-.16a.53.53,0,0,1-.36-.1.7.7,0,0,1-.21-.29l-3-7.41a.46.46,0,0,1,0-.14.34.34,0,0,1,.11-.25.3.3,0,0,1,.23-.1h1.32a.41.41,0,0,1,.43.3l2.11,5.57,2.11-5.57a.43.43,0,0,1,.13-.21.41.41,0,0,1,.28-.09h1.33a.29.29,0,0,1,.23.1.33.33,0,0,1,.1.25.46.46,0,0,1,0,.14l-3,7.41a.6.6,0,0,1-.57.39Zm-6.6,0a.36.36,0,0,1-.27-.11.37.37,0,0,1-.11-.27V52.45a.38.38,0,0,1,.11-.28.39.39,0,0,1,.27-.1h1.36a.38.38,0,0,1,.38.38V60a.38.38,0,0,1-.38.38Zm-.06-9.65a.37.37,0,0,1-.27-.11.36.36,0,0,1-.11-.27V49.16a.39.39,0,0,1,.11-.29.37.37,0,0,1,.27-.11h1.47a.39.39,0,0,1,.28.11.4.4,0,0,1,.12.29v1.17a.37.37,0,0,1-.12.27.43.43,0,0,1-.28.11Zm-9.73,9.65a.35.35,0,0,1-.27-.11A.37.37,0,0,1,97,60V52.45a.36.36,0,0,1,.38-.38h1.33a.39.39,0,0,1,.28.1.41.41,0,0,1,.1.28v.65a3.27,3.27,0,0,1,2.66-1.19,3,3,0,0,1,2.33,1,3.79,3.79,0,0,1,.87,2.64V60a.37.37,0,0,1-.11.27.34.34,0,0,1-.28.11H103.1a.33.33,0,0,1-.27-.11.34.34,0,0,1-.12-.27V55.59a2.12,2.12,0,0,0-.45-1.44,1.62,1.62,0,0,0-1.3-.52,1.72,1.72,0,0,0-1.31.53,2,2,0,0,0-.5,1.43V60a.36.36,0,0,1-.1.27.34.34,0,0,1-.28.11Zm-6.93.16a4.77,4.77,0,0,1-3.37-1.1,4.29,4.29,0,0,1-1.2-3.33v-6.5a.39.39,0,0,1,.11-.28.35.35,0,0,1,.28-.12H87.7a.37.37,0,0,1,.29.12.36.36,0,0,1,.11.28v6.5a2.69,2.69,0,0,0,.6,1.9,2.61,2.61,0,0,0,3.4,0,2.69,2.69,0,0,0,.6-1.9v-6.5a.39.39,0,0,1,.11-.28.37.37,0,0,1,.29-.12h1.47a.33.33,0,0,1,.27.12.39.39,0,0,1,.11.28v6.5a4.32,4.32,0,0,1-1.19,3.33,4.71,4.71,0,0,1-3.34,1.1" fill="#0068a3"/><path d="M133.4,44.79a5.34,5.34,0,0,1-3.58-1.1,4.25,4.25,0,0,1-1.38-3.22c0-.29,0-.76,0-1.41s0-1.13,0-1.43a4.23,4.23,0,0,1,1.4-3.2,5.3,5.3,0,0,1,3.56-1.13,6.62,6.62,0,0,1,2.55.47,4.11,4.11,0,0,1,1.78,1.34,3.54,3.54,0,0,1,.69,2.07.3.3,0,0,1-.11.24.33.33,0,0,1-.25.1H135.8a.5.5,0,0,1-.33-.09.72.72,0,0,1-.18-.33,1.92,1.92,0,0,0-.68-1.09,2.09,2.09,0,0,0-1.21-.31q-1.8,0-1.86,2c0,.29,0,.73,0,1.32s0,1,0,1.36q.06,2,1.86,2a2.13,2.13,0,0,0,1.21-.32,1.83,1.83,0,0,0,.68-1.08.63.63,0,0,1,.17-.33.55.55,0,0,1,.34-.09h2.26a.33.33,0,0,1,.25.1.3.3,0,0,1,.11.24,3.57,3.57,0,0,1-.69,2.07A4.11,4.11,0,0,1,136,44.33a6.62,6.62,0,0,1-2.55.46m-11.32,0a5.37,5.37,0,0,1-3.62-1.12,4.27,4.27,0,0,1-1.39-3.22c0-.29,0-.78,0-1.45s0-1.16,0-1.47a4,4,0,0,1,1.4-3.12,5.47,5.47,0,0,1,3.61-1.11,6.71,6.71,0,0,1,2.68.5,4.28,4.28,0,0,1,1.74,1.27,2.85,2.85,0,0,1,.63,1.59.38.38,0,0,1-.35.35H124.3a.46.46,0,0,1-.25-.06.66.66,0,0,1-.16-.17,2,2,0,0,0-.62-.76,1.89,1.89,0,0,0-1.19-.32,1.72,1.72,0,0,0-1.91,1.91c0,.3,0,.76,0,1.38s0,1.07,0,1.38c0,1.35.69,2,2,2a2.17,2.17,0,0,0,1.46-.46,1.73,1.73,0,0,0,.55-1.41v-.28h-1.42a.41.41,0,0,1-.42-.42V38.59a.41.41,0,0,1,.42-.42h4.05a.38.38,0,0,1,.29.12.41.41,0,0,1,.12.3v1.85a4.21,4.21,0,0,1-.63,2.33,3.93,3.93,0,0,1-1.78,1.5,6.38,6.38,0,0,1-2.68.52m-10.5-6.28a1.48,1.48,0,0,0,1-.35,1.29,1.29,0,0,0,.37-1,1.47,1.47,0,0,0-.34-1,1.38,1.38,0,0,0-1.06-.38h-1.79v2.75Zm-4.44,6.12a.38.38,0,0,1-.28-.12.37.37,0,0,1-.12-.27V33.88a.44.44,0,0,1,.11-.3.38.38,0,0,1,.29-.12h4.52a5.07,5.07,0,0,1,3.25.95,3.29,3.29,0,0,1,1.18,2.76,3.2,3.2,0,0,1-1.18,2.72,5.25,5.25,0,0,1-3.25.9h-1.82v3.45a.37.37,0,0,1-.12.27.36.36,0,0,1-.28.12Zm-9.41,0a.39.39,0,0,1-.28-.12.37.37,0,0,1-.12-.27V33.86a.36.36,0,0,1,.12-.28.39.39,0,0,1,.28-.12H100a.41.41,0,0,1,.4.4v8.27h4.78a.41.41,0,0,1,.3.12.4.4,0,0,1,.12.29v1.7a.36.36,0,0,1-.12.28.4.4,0,0,1-.3.11Zm-7.11.16a5.26,5.26,0,0,1-3.55-1.1,4.11,4.11,0,0,1-1.28-3.3V33.88a.44.44,0,0,1,.11-.3.38.38,0,0,1,.29-.12h2.18a.41.41,0,0,1,.42.42v6.48a2.09,2.09,0,0,0,.47,1.48,2.06,2.06,0,0,0,2.7,0,2.08,2.08,0,0,0,.47-1.47V33.88a.41.41,0,0,1,.12-.3.4.4,0,0,1,.29-.12H95a.41.41,0,0,1,.42.42v6.51a4.11,4.11,0,0,1-1.28,3.3,5.2,5.2,0,0,1-3.53,1.1" fill="#f59b09"/><rect x="-58.02" y="-147.81" width="595.28" height="841.89" fill="none"/><rect x="-58.02" y="-147.81" width="595.28" height="841.89" fill="none"/></svg>